<svg xmlns="http://www.w3.org/2000/svg" xmlns:xlink="http://www.w3.org/1999/xlink" width="50" zoomAndPan="magnify" viewBox="0 0 37.5 37.499999" height="50" preserveAspectRatio="xMidYMid meet" version="1.0"><defs><clipPath id="id1"><path d="M 4 6 L 34 6 L 34 31 L 4 31 Z M 4 6 " clip-rule="nonzero"/></clipPath><clipPath id="id2"><path d="M 32.238281 5.554688 L 35.472656 27.824219 L 5.042969 32.242188 L 1.808594 9.976562 Z M 32.238281 5.554688 " clip-rule="nonzero"/></clipPath><clipPath id="id3"><path d="M 32.238281 5.554688 L 35.472656 27.824219 L 5.042969 32.242188 L 1.808594 9.976562 Z M 32.238281 5.554688 " clip-rule="nonzero"/></clipPath><clipPath id="id4"><path d="M 24 12 L 34 12 L 34 17 L 24 17 Z M 24 12 " clip-rule="nonzero"/></clipPath><clipPath id="id5"><path d="M 32.238281 5.554688 L 35.472656 27.824219 L 5.042969 32.242188 L 1.808594 9.976562 Z M 32.238281 5.554688 " clip-rule="nonzero"/></clipPath><clipPath id="id6"><path d="M 32.238281 5.554688 L 35.472656 27.824219 L 5.042969 32.242188 L 1.808594 9.976562 Z M 32.238281 5.554688 " clip-rule="nonzero"/></clipPath><clipPath id="id7"><path d="M 8 23 L 14 23 L 14 32 L 8 32 Z M 8 23 " clip-rule="nonzero"/></clipPath><clipPath id="id8"><path d="M 32.238281 5.554688 L 35.472656 27.824219 L 5.042969 32.242188 L 1.808594 9.976562 Z M 32.238281 5.554688 " clip-rule="nonzero"/></clipPath><clipPath id="id9"><path d="M 32.238281 5.554688 L 35.472656 27.824219 L 5.042969 32.242188 L 1.808594 9.976562 Z M 32.238281 5.554688 " clip-rule="nonzero"/></clipPath></defs><g clip-path="url(#id1)"><g clip-path="url(#id2)"><g clip-path="url(#id3)"><path fill="#ffed00" d="M 33.011719 12.097656 C 33.011719 12.097656 31.984375 5.632812 26.148438 6.566406 C 20.3125 7.5 15.316406 9.429688 12.714844 11.78125 C 10.113281 14.136719 3.292969 20.195312 4.875 25.722656 C 4.875 25.722656 5.871094 28.414062 7.53125 30.316406 L 11.882812 22.726562 C 11.882812 22.726562 10.316406 20.894531 11.828125 19.386719 C 13.339844 17.878906 20.648438 12.777344 20.648438 12.777344 C 20.648438 12.777344 23.03125 11.316406 24.488281 13.59375 Z M 33.011719 12.097656 " fill-opacity="1" fill-rule="nonzero"/></g></g></g><g clip-path="url(#id4)"><g clip-path="url(#id5)"><g clip-path="url(#id6)"><path fill="#ffed00" d="M 33.121094 12.855469 C 33.121094 12.855469 33.363281 13.335938 32.988281 14.335938 C 32.613281 15.335938 32.191406 15.394531 32.191406 15.394531 L 26.355469 16.332031 C 26.355469 16.332031 25.980469 16.125 25.59375 15.839844 C 25.203125 15.550781 24.535156 14.53125 24.851562 14.316406 C 25.164062 14.097656 33.121094 12.855469 33.121094 12.855469 Z M 33.121094 12.855469 " fill-opacity="1" fill-rule="nonzero"/></g></g></g><g clip-path="url(#id7)"><g clip-path="url(#id8)"><g clip-path="url(#id9)"><path fill="#ffed00" d="M 12.589844 23.203125 L 13.847656 24.933594 C 13.847656 24.933594 13.992188 25.34375 13.667969 26.078125 C 13.339844 26.8125 11.054688 30.75 11.054688 30.75 C 11.054688 30.75 10.632812 31.414062 10.015625 31.332031 C 9.398438 31.25 8.066406 31.015625 8.066406 31.015625 Z M 12.589844 23.203125 " fill-opacity="1" fill-rule="nonzero"/></g></g></g></svg>