<svg xmlns="http://www.w3.org/2000/svg" xmlns:xlink="http://www.w3.org/1999/xlink" width="50" zoomAndPan="magnify" viewBox="0 0 37.5 37.499999" height="50" preserveAspectRatio="xMidYMid meet" version="1.0"><defs><clipPath id="id1"><path d="M 8.480469 4.078125 L 28.730469 4.078125 L 28.730469 33.328125 L 8.480469 33.328125 Z M 8.480469 4.078125 " clip-rule="nonzero"/></clipPath></defs><g clip-path="url(#id1)"><path fill="#ffed00" d="M 18.605469 4.085938 C 13.015625 4.085938 8.480469 8.667969 8.480469 14.316406 C 8.480469 21.992188 18.605469 33.320312 18.605469 33.320312 C 18.605469 33.320312 28.730469 21.992188 28.730469 14.316406 C 28.730469 8.667969 24.195312 4.085938 18.605469 4.085938 Z M 18.605469 17.972656 C 16.609375 17.972656 14.988281 16.335938 14.988281 14.316406 C 14.988281 12.300781 16.609375 10.664062 18.605469 10.664062 C 20.601562 10.664062 22.21875 12.300781 22.21875 14.316406 C 22.21875 16.335938 20.601562 17.972656 18.605469 17.972656 Z M 18.605469 17.972656 " fill-opacity="1" fill-rule="nonzero"/></g></svg>