<svg xmlns="http://www.w3.org/2000/svg" xmlns:xlink="http://www.w3.org/1999/xlink" width="40" zoomAndPan="magnify" viewBox="0 0 30 30.000001" height="40" preserveAspectRatio="xMidYMid meet" version="1.0"><defs><clipPath id="id1"><path d="M 0.484375 0.308594 L 29 0.308594 L 29 28.613281 L 0.484375 28.613281 Z M 0.484375 0.308594 " clip-rule="nonzero"/></clipPath></defs><g clip-path="url(#id1)"><path fill="#ffed00" d="M 18.753906 14.605469 L 27.914062 5.371094 C 29 4.277344 29 2.503906 27.914062 1.40625 C 26.828125 0.3125 25.066406 0.3125 23.980469 1.40625 L 14.824219 10.640625 L 5.664062 1.410156 C 4.578125 0.3125 2.816406 0.3125 1.730469 1.410156 C 0.648438 2.503906 0.648438 4.277344 1.730469 5.371094 L 10.890625 14.605469 L 1.710938 23.859375 C 0.625 24.953125 0.625 26.730469 1.710938 27.824219 C 2.253906 28.371094 2.964844 28.644531 3.675781 28.644531 C 4.386719 28.644531 5.097656 28.371094 5.640625 27.824219 L 14.820312 18.570312 L 23.980469 27.800781 C 24.523438 28.347656 25.234375 28.621094 25.945312 28.621094 C 26.65625 28.621094 27.367188 28.347656 27.910156 27.800781 C 28.996094 26.707031 28.996094 24.929688 27.910156 23.835938 Z M 18.753906 14.605469 " fill-opacity="1" fill-rule="nonzero"/></g></svg>