<svg xmlns="http://www.w3.org/2000/svg" xmlns:xlink="http://www.w3.org/1999/xlink" width="50" zoomAndPan="magnify" viewBox="0 0 37.5 37.499999" height="50" preserveAspectRatio="xMidYMid meet" version="1.0"><defs><clipPath id="id1"><path d="M 6.902344 5.585938 L 30.902344 5.585938 L 30.902344 31.835938 L 6.902344 31.835938 Z M 6.902344 5.585938 " clip-rule="nonzero"/></clipPath></defs><g clip-path="url(#id1)"><path fill="#ffed00" d="M 25.566406 20.023438 L 18.902344 20.023438 L 18.902344 26.585938 L 25.566406 26.585938 Z M 24.234375 5.585938 L 24.234375 8.210938 L 13.570312 8.210938 L 13.570312 5.585938 L 10.90625 5.585938 L 10.90625 8.210938 L 9.570312 8.210938 C 8.097656 8.210938 6.917969 9.386719 6.917969 10.835938 L 6.90625 29.210938 C 6.90625 30.660156 8.097656 31.835938 9.570312 31.835938 L 28.234375 31.835938 C 29.707031 31.835938 30.898438 30.660156 30.898438 29.210938 L 30.898438 10.835938 C 30.898438 9.386719 29.707031 8.210938 28.234375 8.210938 L 26.898438 8.210938 L 26.898438 5.585938 Z M 28.234375 29.210938 L 9.570312 29.210938 L 9.570312 14.773438 L 28.234375 14.773438 Z M 28.234375 29.210938 " fill-opacity="1" fill-rule="nonzero"/></g></svg>