<svg xmlns="http://www.w3.org/2000/svg" xmlns:xlink="http://www.w3.org/1999/xlink" width="50" zoomAndPan="magnify" viewBox="0 0 37.5 37.499999" height="50" preserveAspectRatio="xMidYMid meet" version="1.0"><defs><clipPath id="id1"><path d="M 4.722656 8.738281 L 32.472656 8.738281 L 32.472656 28.988281 L 4.722656 28.988281 Z M 4.722656 8.738281 " clip-rule="nonzero"/></clipPath></defs><g clip-path="url(#id1)"><path fill="#ffed00" d="M 7.707031 8.738281 C 6.066406 8.738281 4.738281 10.09375 4.738281 11.773438 C 4.773438 16.378906 4.738281 21.253906 4.738281 25.949219 C 4.738281 27.566406 5.96875 28.875 7.523438 28.972656 L 29.609375 28.988281 C 31.191406 28.921875 32.457031 27.585938 32.457031 25.949219 L 32.457031 11.253906 C 32.214844 9.820312 31 8.738281 29.53125 8.738281 C 22.261719 8.742188 14.980469 8.738281 7.707031 8.738281 Z M 7.660156 10.335938 L 29.625 10.335938 L 19 21.203125 C 18.804688 21.402344 18.496094 21.402344 18.300781 21.203125 Z M 30.96875 11.109375 L 30.96875 25.839844 C 30.96875 26.714844 30.660156 27.210938 30.042969 27.390625 L 22.554688 19.714844 Z M 6.394531 11.171875 L 14.667969 19.636719 L 7.105469 27.375 C 6.585938 27.195312 6.40625 26.769531 6.394531 26.1875 Z M 15.71875 20.695312 L 18.304688 23.355469 C 18.496094 23.554688 18.804688 23.554688 19 23.355469 L 21.503906 20.792969 L 28.03125 27.46875 L 9.101562 27.46875 L 15.71875 20.699219 Z M 15.71875 20.695312 " fill-opacity="1" fill-rule="nonzero"/></g></svg>